<?xml version="1.0" encoding="utf-8"?>
<!-- Generator: Adobe Illustrator 19.2.1, SVG Export Plug-In . SVG Version: 6.00 Build 0)  -->
<svg version="1.1" id="Layer_1" xmlns="http://www.w3.org/2000/svg" xmlns:xlink="http://www.w3.org/1999/xlink" x="0px" y="0px"
	 viewBox="0 0 366.6 367.2" style="enable-background:new 0 0 366.6 367.2;" xml:space="preserve">
<style type="text/css">
	.st0{fill:none;}
	.st1{fill:#231F20;}
	.st2{fill:#FFFFFF;}
</style>
<title>facebook_icon</title>
<g>
	<path class="st0" d="M-60.3-39.1v500h499.9v-500C439.6-39.1-60.3-39.1-60.3-39.1z M365.6,345.5c0,11.1-8.9,20-20,20.1h-89.7l0,0
		v9.7h-56.6v-9.7h-3.1H22.1c-11.1,0-20.1-9-20.1-20.1V22.1C2,11,11,2,22.1,2l0,0h323.5c11.1,0,20,9,20,20.1V345.5z"/>
	<path class="st0" d="M303.2,224.8l7.1-54.9H256v-35c0-15.9,4.4-26.7,27.2-26.7h29.1V59.1c-14.1-1.5-28.2-2.2-42.3-2.2
		c-41.9,0-70.6,25.6-70.6,72.5v40.5H152v54.9h47.4v140.8l0,0v-6.4H256v6.5l0,0V224.8H303.2z"/>
	<path class="st1" d="M255.9,365.6L255.9,365.6L255.9,365.6z"/>
	<path class="st2" d="M345.6,2H22.1l0,0C11,2,2,11,2,22.1v323.4c0,11.1,9,20.1,20.1,20.1h174.2h3.1l0,0l0,0V224.7H152v-54.9h47.4
		v-40.5c0-47,28.7-72.5,70.6-72.5c14.1,0,28.3,0.7,42.3,2.2v49.1h-29.1c-22.8,0-27.2,10.8-27.2,26.7v35h54.3l-7.1,54.9h-47.3v140.8
		h89.7c11.1,0,20-9,20-20.1V22.1C365.6,11,356.6,2,345.6,2z"/>
	<polygon class="st2" points="199.3,365.5 199.3,365.5 252.9,365.6 255.9,365.6 255.9,365.6 	"/>
</g>
</svg>
