<svg id="Layer_1" data-name="Layer 1" xmlns="http://www.w3.org/2000/svg" xmlns:xlink="http://www.w3.org/1999/xlink" viewBox="0 0 500 500"><defs><style>.cls-1{fill:none;}.cls-2{clip-path:url(#clip-path);}.cls-3{fill:#fff;}</style><clipPath id="clip-path"><rect class="cls-1" x="0.06" width="499.94" height="500"/></clipPath></defs><title>twitter_icon</title><g class="cls-2"><path class="cls-3" d="M484.74,0H15.26A15.25,15.25,0,0,0,0,15.25v469.5A15.25,15.25,0,0,0,15.26,500H484.74A15.25,15.25,0,0,0,500,484.75V15.25A15.25,15.25,0,0,0,484.74,0M415,165.39q0.24,5.48.24,11c0,112.48-85.62,242.19-242.19,242.19A240.94,240.94,0,0,1,42.55,380.35a172.93,172.93,0,0,0,20.31,1.19A170.8,170.8,0,0,0,168.57,345.1,85.2,85.2,0,0,1,89.06,286a85.31,85.31,0,0,0,38.44-1.46,85.17,85.17,0,0,1-68.28-83.47c0-.36,0-0.71,0-1.07a84.8,84.8,0,0,0,38.56,10.65A85.21,85.21,0,0,1,71.43,97a241.65,241.65,0,0,0,175.45,88.94,85.18,85.18,0,0,1,145.05-77.64A170.51,170.51,0,0,0,446,87.64a85.36,85.36,0,0,1-37.43,47.09,170.15,170.15,0,0,0,48.89-13.4A173,173,0,0,1,415,165.39Z"/></g></svg>