<svg id="Layer_1" data-name="Layer 1" xmlns="http://www.w3.org/2000/svg" xmlns:xlink="http://www.w3.org/1999/xlink" viewBox="0 0 500 500"><defs><style>.cls-1{fill:none;}.cls-2{clip-path:url(#clip-path);}.cls-3{fill:#fff;}</style><clipPath id="clip-path"><rect class="cls-1" x="0.06" width="499.94" height="500"/></clipPath></defs><title>youtube_icon</title><g class="cls-2"><polyline class="cls-3" points="206.83 304.24 319.8 245.7 206.81 186.75 206.83 304.24"/><path class="cls-3" d="M484.74,0H15.26A15.25,15.25,0,0,0,0,15.25v469.5A15.25,15.25,0,0,0,15.26,500H484.74A15.25,15.25,0,0,0,500,484.75V15.25A15.25,15.25,0,0,0,484.74,0M459.09,265.8a633.07,633.07,0,0,1-4.18,67.68s-4.09,28.82-16.62,41.51c-15.9,16.66-33.73,16.74-41.9,17.71C337.87,396.93,250,397.06,250,397.06s-108.73-1-142.18-4.2c-9.31-1.74-30.2-1.22-46.11-17.87-12.54-12.69-16.62-41.51-16.62-41.51a632.32,632.32,0,0,1-4.18-67.68V234.07a632.31,632.31,0,0,1,4.18-67.68s4.08-28.82,16.62-41.51c15.91-16.66,33.73-16.74,41.9-17.71,58.52-4.23,146.3-4.23,146.3-4.23h0.18s87.78,0,146.3,4.23c8.17,1,26,1.06,41.9,17.71,12.54,12.69,16.62,41.51,16.62,41.51a633.06,633.06,0,0,1,4.18,67.68V265.8Z"/></g></svg>